<?xml version="1.0" standalone="no"?>
<!DOCTYPE svg PUBLIC "-//W3C//DTD SVG 20010904//EN"
 "http://www.w3.org/TR/2001/REC-SVG-20010904/DTD/svg10.dtd">
<svg version="1.0" xmlns="http://www.w3.org/2000/svg"
 width="1229.490858pt" height="201.110369pt" viewBox="0 0 1229.490858 201.110369"
 preserveAspectRatio="xMidYMid meet">
<metadata>
Created by potrace 1.16, written by Peter Selinger 2001-2019
</metadata>
<g transform="translate(-212.464968,398.761761) scale(0.100000,-0.100000)"
fill="#ffffff" stroke="none">
<path d="M12005 3966 c-133 -29 -135 -30 -209 -78 -33 -21 -65 -38 -72 -38
-19 0 -172 -152 -183 -182 -17 -47 8 -88 74 -120 79 -39 135 -27 175 37 30 49
91 81 205 110 148 38 260 28 349 -30 37 -24 129 -209 130 -261 2 -64 -154
-301 -232 -354 -21 -14 -58 -41 -82 -61 -25 -19 -67 -48 -94 -64 -28 -15 -78
-53 -112 -84 -33 -31 -106 -92 -162 -135 -188 -148 -286 -340 -287 -558 0
-165 -51 -152 612 -154 598 -2 607 -2 634 47 17 33 14 105 -6 135 -32 50 -50
52 -488 53 -414 2 -429 3 -459 29 -37 32 -23 66 75 176 97 110 142 149 272
236 44 30 95 66 113 82 18 15 52 38 75 49 23 12 75 53 115 90 39 38 78 69 86
69 27 0 73 55 91 110 10 30 35 87 55 126 72 137 77 294 12 427 -16 34 -40 86
-52 115 -25 57 -84 116 -128 127 -15 3 -81 31 -147 62 -148 69 -197 75 -360
39z M13690 3954 c-36 -8 -96 -19 -135 -25 -82 -13 -113 -29 -144 -75 -13 -19
-38 -43 -55 -54 -18 -10 -41 -29 -52 -41 -35 -39 -104 -248 -104 -319 0 -42
86 -224 120 -255 47 -42 64 -111 38 -158 -6 -12 -34 -44 -62 -72 -118 -117
-179 -260 -180 -420 0 -110 0 -110 51 -215 57 -118 107 -173 229 -252 89 -57
110 -64 270 -83 162 -20 295 -5 391 43 32 16 76 35 97 42 44 14 188 146 213
195 28 54 44 128 50 240 6 110 6 110 -37 195 -25 51 -64 108 -96 142 -86 90
-95 139 -39 212 48 64 133 235 151 308 30 117 -26 331 -105 402 -37 34 -68 66
-118 120 -25 27 -43 36 -80 41 -26 4 -94 15 -151 26 -120 22 -163 23 -252 3z
m297 -244 c140 -69 179 -138 171 -304 -5 -99 -6 -103 -57 -198 -88 -163 -116
-176 -251 -112 -339 161 -400 218 -400 378 0 97 40 161 139 226 84 55 105 60
221 55 86 -5 103 -9 177 -45z m-248 -784 c28 -19 67 -40 88 -46 21 -7 58 -25
83 -40 25 -16 63 -36 85 -44 41 -18 136 -110 163 -161 23 -43 23 -185 -1 -245
-29 -76 -90 -126 -203 -168 -122 -44 -181 -46 -318 -9 -115 30 -150 54 -216
148 -45 64 -45 64 -45 189 0 156 27 225 128 328 94 97 147 107 236 48z M4905
3769 c-47 -5 -97 -20 -150 -45 -44 -20 -114 -53 -155 -72 -56 -26 -93 -53
-146 -106 -39 -39 -85 -83 -102 -98 -17 -15 -36 -45 -43 -65 -7 -21 -23 -54
-36 -74 -13 -20 -35 -68 -49 -105 -14 -38 -33 -87 -42 -109 -12 -31 -16 -79
-16 -205 -1 -165 -1 -165 36 -250 20 -47 42 -105 48 -130 28 -108 199 -321
313 -388 184 -109 203 -115 392 -122 94 -3 192 -2 220 2 119 18 379 180 445
278 21 30 56 77 78 104 22 26 46 69 53 95 7 25 28 75 46 111 61 118 67 432 10
534 -14 25 -30 62 -37 83 -28 92 -111 238 -152 267 -22 16 -56 51 -75 78 -100
139 -409 244 -638 217z m202 -240 c43 -5 97 -20 120 -32 154 -81 163 -87 212
-155 102 -138 150 -294 151 -480 0 -194 -117 -451 -240 -524 -19 -12 -48 -34
-65 -49 -56 -52 -89 -59 -272 -59 -184 0 -231 8 -283 49 -19 15 -56 41 -81 58
-56 39 -139 157 -164 233 -10 30 -29 82 -43 115 -58 141 -17 418 90 600 52 89
73 112 128 140 25 13 63 37 84 54 42 34 57 39 139 51 78 11 137 11 224 -1z
M2402 3755 c-40 -7 -87 -22 -105 -32 -17 -10 -54 -27 -82 -37 -84 -31 -105
-62 -81 -120 22 -53 53 -59 246 -45 259 19 340 -3 340 -93 0 -18 1 -338 3
-710 2 -790 -10 -717 119 -726 86 -5 132 12 150 56 19 48 32 821 16 1002 -13
162 -12 403 3 431 16 31 63 38 302 41 290 5 282 1 282 128 0 126 56 115 -578
117 -414 1 -559 -2 -615 -12z M6671 3753 c-12 -10 -26 -35 -31 -56 -11 -52
-12 -658 -1 -827 18 -267 126 -589 218 -653 21 -15 57 -48 79 -75 51 -59 141
-108 234 -128 89 -18 411 -21 492 -5 97 21 296 164 344 249 15 26 45 75 66
109 57 90 78 152 88 272 6 58 15 138 21 178 16 113 18 890 2 913 -32 46 -198
56 -238 15 -30 -29 -28 16 -30 -565 -1 -475 -1 -475 -31 -535 -17 -33 -39 -91
-48 -129 -21 -87 -48 -139 -84 -165 -58 -41 -189 -97 -271 -116 -84 -19 -84
-19 -170 3 -58 15 -112 38 -166 71 -78 47 -81 51 -125 137 -94 185 -102 253
-101 794 2 455 1 470 -18 489 -42 42 -189 57 -230 24z M9155 3754 c-11 -3 -30
-7 -42 -10 -46 -9 -46 -8 -49 -779 -4 -981 -6 -966 141 -973 162 -9 159 -16
154 441 -6 573 -3 690 19 717 28 35 67 21 100 -38 15 -25 45 -65 68 -87 22
-22 54 -60 69 -85 15 -25 44 -60 63 -79 19 -19 42 -52 52 -74 10 -22 51 -72
91 -111 97 -95 161 -171 187 -223 12 -23 40 -57 62 -75 22 -18 56 -58 75 -89
20 -32 42 -59 50 -63 8 -3 28 -33 46 -68 31 -63 41 -74 113 -129 65 -49 205
-40 241 15 19 28 23 1007 6 1339 -6 104 -5 195 0 237 15 103 -3 125 -108 136
-79 8 -136 -8 -153 -43 -10 -22 -14 -145 -17 -563 -4 -649 1 -625 -117 -523
-46 39 -71 70 -82 100 -9 24 -38 64 -66 91 -27 26 -58 63 -70 83 -11 20 -40
53 -64 74 -25 20 -55 58 -68 84 -14 26 -45 64 -70 84 -24 21 -61 64 -81 97
-20 33 -41 60 -46 60 -5 0 -28 28 -50 63 -22 34 -58 79 -80 100 -21 21 -48 54
-58 75 -11 20 -38 55 -61 77 -23 22 -47 54 -54 70 -22 51 -49 67 -118 71 -35
1 -72 1 -83 -2z"/>
</g>
</svg>
